<svg width="40" height="40" viewBox="0 0 40 40" fill="none" xmlns="http://www.w3.org/2000/svg">
<path d="M19.4897 9.08331C13.7397 9.08331 9.0835 13.75 9.0835 19.5C9.0835 25.25 13.7397 29.9166 19.4897 29.9166C25.2502 29.9166 29.9168 25.25 29.9168 19.5C29.9168 13.75 25.2502 9.08331 19.4897 9.08331ZM19.5002 27.8333C14.896 27.8333 11.1668 24.1041 11.1668 19.5C11.1668 14.8958 14.896 11.1666 19.5002 11.1666C24.1043 11.1666 27.8335 14.8958 27.8335 19.5C27.8335 24.1041 24.1043 27.8333 19.5002 27.8333ZM20.021 14.2916H18.4585V20.5416L23.9272 23.8229L24.7085 22.5416L20.021 19.7604V14.2916Z" fill="white"/>
<circle cx="20" cy="20" r="20" fill="#113059" fill-opacity="0.1"/>
</svg>
