<svg width="20" height="20" viewBox="0 0 20 20" fill="none" xmlns="http://www.w3.org/2000/svg">
<path d="M7.9165 7.77116V12.2295C7.9165 12.5628 8.06234 12.8059 8.354 12.9587C8.64567 13.1114 8.93039 13.0975 9.20817 12.917L12.6665 10.7087C12.9304 10.5559 13.0623 10.3198 13.0623 10.0003C13.0623 9.68088 12.9304 9.44477 12.6665 9.29199L9.20817 7.08366C8.93039 6.9031 8.64567 6.88921 8.354 7.04199C8.06234 7.19477 7.9165 7.43783 7.9165 7.77116ZM9.99984 18.3337C8.84706 18.3337 7.76373 18.1148 6.74984 17.677C5.73595 17.2392 4.854 16.6456 4.104 15.8962C3.354 15.1462 2.76039 14.2642 2.32317 13.2503C1.88595 12.2364 1.66706 11.1531 1.6665 10.0003C1.6665 8.84755 1.88539 7.76421 2.32317 6.75033C2.76095 5.73644 3.35456 4.85449 4.104 4.10449C4.854 3.35449 5.73595 2.76088 6.74984 2.32366C7.76373 1.88644 8.84706 1.66755 9.99984 1.66699C11.1526 1.66699 12.2359 1.88588 13.2498 2.32366C14.2637 2.76144 15.1457 3.35505 15.8957 4.10449C16.6457 4.85449 17.2396 5.73644 17.6773 6.75033C18.1151 7.76421 18.3337 8.84755 18.3332 10.0003C18.3332 11.1531 18.1143 12.2364 17.6765 13.2503C17.2387 14.2642 16.6451 15.1462 15.8957 15.8962C15.1457 16.6462 14.2637 17.24 13.2498 17.6778C12.2359 18.1156 11.1526 18.3342 9.99984 18.3337ZM9.99984 16.667C11.8471 16.667 13.4201 16.0178 14.719 14.7195C16.0179 13.4212 16.6671 11.8481 16.6665 10.0003C16.6665 8.1531 16.0173 6.58005 14.719 5.28116C13.4207 3.98227 11.8476 3.3331 9.99984 3.33366C8.15261 3.33366 6.57956 3.98283 5.28067 5.28116C3.98178 6.57949 3.33261 8.15255 3.33317 10.0003C3.33317 11.8475 3.98234 13.4206 5.28067 14.7195C6.579 16.0184 8.15206 16.6675 9.99984 16.667Z" fill="#F21D2F"/>
</svg>
