<svg width="25" height="25" viewBox="0 0 25 25" fill="none" xmlns="http://www.w3.org/2000/svg">
<path d="M2.81234 18.0208C2.62137 17.8299 2.52588 17.591 2.52588 17.3042C2.52588 17.0174 2.62137 16.7701 2.81234 16.5625L9.06234 10.2604C9.1665 10.1736 9.27935 10.1042 9.40088 10.0521C9.52241 10 9.65261 9.97396 9.7915 9.97396C9.93039 9.97396 10.0648 10 10.1946 10.0521C10.3245 10.1042 10.4332 10.1736 10.5207 10.2604L13.9582 13.6979L19.3748 8.33334H17.7082C17.413 8.33334 17.1655 8.23334 16.9655 8.03334C16.7655 7.83334 16.6658 7.58611 16.6665 7.29167C16.6665 6.99653 16.7665 6.74896 16.9665 6.54896C17.1665 6.34896 17.4137 6.24931 17.7082 6.25H21.8748C22.17 6.25 22.4175 6.35 22.6175 6.55C22.8175 6.75 22.9172 6.99723 22.9165 7.29167V11.4583C22.9165 11.7535 22.8165 12.001 22.6165 12.201C22.4165 12.401 22.1693 12.5007 21.8748 12.5C21.5797 12.5 21.3321 12.4 21.1321 12.2C20.9321 12 20.8325 11.7528 20.8332 11.4583V9.79167L14.6873 15.9375C14.5832 16.0417 14.4703 16.1156 14.3488 16.1594C14.2273 16.2031 14.0971 16.2247 13.9582 16.224C13.8193 16.224 13.6891 16.2024 13.5675 16.1594C13.446 16.1163 13.3332 16.0424 13.229 15.9375L9.7915 12.5L4.24463 18.0469C4.05366 18.2379 3.81928 18.3333 3.5415 18.3333C3.26373 18.3333 3.02067 18.2292 2.81234 18.0208Z" fill="white"/>
</svg>
