<svg width="40" height="40" viewBox="0 0 40 40" fill="none" xmlns="http://www.w3.org/2000/svg">
<circle cx="20" cy="20" r="19.5" stroke="white"/>
<path d="M19.4998 11.1667C20.6049 11.1667 21.6647 11.6057 22.4461 12.3871C23.2275 13.1685 23.6665 14.2283 23.6665 15.3334C23.6665 16.4384 23.2275 17.4982 22.4461 18.2796C21.6647 19.061 20.6049 19.5 19.4998 19.5C18.3948 19.5 17.335 19.061 16.5536 18.2796C15.7722 17.4982 15.3332 16.4384 15.3332 15.3334C15.3332 14.2283 15.7722 13.1685 16.5536 12.3871C17.335 11.6057 18.3948 11.1667 19.4998 11.1667ZM19.4998 21.5834C24.104 21.5834 27.8332 23.4479 27.8332 25.75V27.8334H11.1665V25.75C11.1665 23.4479 14.8957 21.5834 19.4998 21.5834Z" fill="white"/>
</svg>
