<svg width="30" height="30" viewBox="0 0 30 30" fill="none" xmlns="http://www.w3.org/2000/svg">
<path d="M11.875 11.6562V18.3438C11.875 18.8438 12.0937 19.2083 12.5312 19.4375C12.9687 19.6667 13.3958 19.6458 13.8125 19.375L19 16.0625C19.3958 15.8333 19.5938 15.4792 19.5938 15C19.5938 14.5208 19.3958 14.1667 19 13.9375L13.8125 10.625C13.3958 10.3542 12.9687 10.3333 12.5312 10.5625C12.0937 10.7917 11.875 11.1562 11.875 11.6562ZM15 27.5C13.2708 27.5 11.6458 27.1717 10.125 26.515C8.60417 25.8583 7.28125 24.9679 6.15625 23.8438C5.03125 22.7188 4.14083 21.3958 3.485 19.875C2.82917 18.3542 2.50083 16.7292 2.5 15C2.5 13.2708 2.82833 11.6458 3.485 10.125C4.14167 8.60417 5.03208 7.28125 6.15625 6.15625C7.28125 5.03125 8.60417 4.14083 10.125 3.485C11.6458 2.82917 13.2708 2.50083 15 2.5C16.7292 2.5 18.3542 2.82833 19.875 3.485C21.3958 4.14167 22.7188 5.03208 23.8438 6.15625C24.9688 7.28125 25.8596 8.60417 26.5162 10.125C27.1729 11.6458 27.5008 13.2708 27.5 15C27.5 16.7292 27.1717 18.3542 26.515 19.875C25.8583 21.3958 24.9679 22.7188 23.8438 23.8438C22.7188 24.9688 21.3958 25.8596 19.875 26.5162C18.3542 27.1729 16.7292 27.5008 15 27.5ZM15 25C17.7708 25 20.1304 24.0263 22.0788 22.0788C24.0271 20.1313 25.0008 17.7717 25 15C25 12.2292 24.0263 9.86958 22.0788 7.92125C20.1313 5.97292 17.7717 4.99917 15 5C12.2292 5 9.86958 5.97375 7.92125 7.92125C5.97292 9.86875 4.99917 12.2283 5 15C5 17.7708 5.97375 20.1304 7.92125 22.0788C9.86875 24.0271 12.2283 25.0008 15 25Z" fill="white"/>
</svg>
